HIERARCHY
ROOT RootJoint
{
    OFFSET   0.000000   0.000000   0.000000
    CHANNELS 6 Xposition Yposition Zposition Xrotation Yrotation Zrotation
    JOINT lHip
    {
        OFFSET   0.100000  -0.051395   0.000000
        CHANNELS 3 Xrotation Yrotation Zrotation
        JOINT lKnee
        {
            OFFSET   0.289914  -0.289914   0.000000
            CHANNELS 3 Xrotation Yrotation Zrotation
            JOINT lAnkle
            {
                OFFSET   0.275772  -0.275772   0.000000
                CHANNELS 3 Xrotation Yrotation Zrotation
                JOINT lToeJoint
                {
                    OFFSET   0.035355  -0.035355   0.130000
                    CHANNELS 3 Xrotation Yrotation Zrotation
                    End Site
                    {
                        OFFSET   0.005657   0.008485   0.060000
                    }
                }
            }
        }
    }
    JOINT rHip
    {
        OFFSET  -0.100000  -0.051395   0.000000
        CHANNELS 3 Xrotation Yrotation Zrotation
        JOINT rKnee
        {
            OFFSET  -0.289914  -0.289914   0.000000
            CHANNELS 3 Xrotation Yrotation Zrotation
            JOINT rAnkle
            {
                OFFSET  -0.275772  -0.275772   0.000000
                CHANNELS 3 Xrotation Yrotation Zrotation
                JOINT rToeJoint
                {
                    OFFSET  -0.035355  -0.035355   0.130000
                    CHANNELS 3 Xrotation Yrotation Zrotation
                    End Site
                    {
                        OFFSET  -0.005657   0.008485   0.060000
                    }
                }
            }
        }
    }
    JOINT pelvis_lowerback
    {
        OFFSET   0.000000   0.093605   0.000000
        CHANNELS 3 Xrotation Yrotation Zrotation
        JOINT lowerback_torso
        {
            OFFSET   0.000000   0.100000   0.000000
            CHANNELS 3 Xrotation Yrotation Zrotation
            JOINT torso_head
            {
                OFFSET   0.000000   0.282350   0.000000
                CHANNELS 3 Xrotation Yrotation Zrotation
                End Site
                {
                    OFFSET   0.000000   0.192650   0.000000
                }
            }
            JOINT lTorso_Clavicle
            {
                OFFSET   0.001000   0.157500   0.000000
                CHANNELS 3 Xrotation Yrotation Zrotation
                JOINT lShoulder
                {
                    OFFSET   0.117647   0.000000   0.000000
                    CHANNELS 3 Xrotation Yrotation Zrotation
                    JOINT lElbow
                    {
                        OFFSET   0.173241  -0.173241   0.000000
                        CHANNELS 3 Xrotation Yrotation Zrotation
                        JOINT lWrist
                        {
                            OFFSET   0.169706  -0.169706   0.000000
                            CHANNELS 3 Xrotation Yrotation Zrotation
                            End Site
                            {
                                OFFSET   0.080506  -0.084042   0.000000
                            }
                        }
                    }
                }
            }
            JOINT rTorso_Clavicle
            {
                OFFSET  -0.001000   0.157500   0.000000
                CHANNELS 3 Xrotation Yrotation Zrotation
                JOINT rShoulder
                {
                    OFFSET  -0.117647   0.000000   0.000000
                    CHANNELS 3 Xrotation Yrotation Zrotation
                    JOINT rElbow
                    {
                        OFFSET  -0.173241  -0.173241   0.000000
                        CHANNELS 3 Xrotation Yrotation Zrotation
                        JOINT rWrist
                        {
                            OFFSET  -0.169706  -0.169706   0.000000
                            CHANNELS 3 Xrotation Yrotation Zrotation
                            End Site
                            {
                                OFFSET  -0.080506  -0.084042   0.000000
                            }
                        }
                    }
                }
            }
        }
    }
}
MOTION
Frames: 14
Frame Time:   0.010000
 -2.257317   0.814453   3.317275 170.125254   8.373094 -172.278004 -21.087871   3.413902 -56.203461  37.190275  29.276044 -10.797829 -11.758472 -15.403267   4.148931   0.000012  -0.000012  -0.000006 -54.078270  -2.920552  41.856219  19.930959 -21.631359  -0.764765   6.743687  -9.325687  -2.674239  -0.000002  -0.000009  -0.000001   7.157701  -0.524371   1.156486  28.709658  -1.534046   4.844429  -3.472466  -7.873336  -9.215515  -0.758532  -7.688082 -14.590778  -8.513631 -29.025748  -7.017380 -38.902405 -34.198027  -1.302237  12.288381 -18.689531  12.543546   0.389551  11.489102  11.907756  10.522217  27.861083  -5.290067 -13.819150  14.772093  -0.241821   1.971464   8.898738 -20.299012
 -2.254433   0.813645   3.310222 169.652059   8.364235 -172.404260 -22.870402   3.685175 -55.102059  40.337713  30.489196 -13.501742  -9.798275 -13.737311   4.177571   0.000010  -0.000008  -0.000005 -54.611507  -3.426553  42.068439  20.848737 -22.244407  -0.649626   6.319134  -8.755692  -2.819949  -0.000002  -0.000008  -0.000001   7.210987  -0.492331   1.245395  28.922016  -1.347770   5.172618  -3.909032  -7.797964  -9.372454  -0.757185  -7.727290 -14.566145  -8.391638 -28.772681  -7.314761 -38.570319 -34.003089  -1.125157  12.020256 -18.582169  12.712332   0.418726  11.911333  11.624331  10.124519  28.192205  -5.713598 -13.551709  14.518611  -0.213411   1.926574   8.949947 -20.066694
 -2.251550   0.812838   3.303170 169.178855   8.356408 -172.530582 -24.658355   3.922068 -53.992408  43.586841  31.569652 -16.312399  -7.851947 -12.071379   4.147740   0.000007  -0.000006  -0.000004 -55.143165  -3.934500  42.276050  21.771931 -22.855659  -0.523333   5.896677  -8.184648  -2.961173  -0.000001  -0.000006  -0.000001   7.264223  -0.460208   1.334274  29.133287  -1.160282   5.500091  -4.345310  -7.721410  -9.528782  -0.755821  -7.766497 -14.541510  -8.268445 -28.520171  -7.612038 -38.239720 -33.807306  -0.949846  11.751966 -18.475557  12.881539   0.450085  12.333417  11.340238   9.728371  28.525909  -6.135832 -13.284441  14.265261  -0.183814   1.881466   9.000976 -19.834305
 -2.248666   0.812030   3.296117 168.705644   8.349613 -172.656963 -26.451053   4.124254 -52.875589  46.930838  32.509812 -19.222233  -5.915946 -10.407388   4.060578   0.000005  -0.000002  -0.000003 -55.673320  -4.444346  42.479060  22.700808 -23.464946  -0.385743   5.476225  -7.612593  -3.097949  -0.000001  -0.000004  -0.000001   7.317409  -0.428003   1.423123  29.343471  -0.971591   5.826850  -4.781296  -7.643679  -9.684487  -0.754439  -7.805704 -14.516871  -8.144059 -28.268225  -7.909225 -37.910597 -33.610689  -0.776294  11.483511 -18.369699  13.051167   0.483640  12.755344  11.055441   9.333771  28.862169  -6.556774 -13.017336  14.012046  -0.153031   1.836144   9.051824 -19.601840
 -2.245860   0.811710   3.288815 168.266570   8.295915 -172.676821 -28.298267   4.669773 -51.861395  50.503074  33.193701 -21.847665  -4.319580  -9.033264   3.333944   0.000005  -0.000002  -0.000003 -56.095398  -4.827717  42.527561  23.553787 -24.039854  -0.181665   4.944925  -6.938432  -3.144861  -0.000001  -0.000005  -0.000001   7.372862  -0.402557   1.482593  29.562631  -0.826979   6.042753  -5.127862  -7.626900  -9.751143  -0.759044  -7.945126 -14.519823  -8.031048 -28.158304  -8.037692 -37.266977 -33.219454  -0.350981  11.055413 -18.071612  13.018438   0.506421  13.162176  10.897620   9.025721  29.183528  -7.148836 -12.824526  13.823458  -0.172216   1.848318   9.077475 -19.533193
 -2.243093   0.811632   3.281388 167.844674   8.218220 -172.643886 -30.183096   5.372133 -50.880175  54.202726  33.687113 -24.348093  -2.875816  -7.824404   2.283535   0.000005  -0.000004  -0.000003 -56.464197  -5.147080  42.498610  24.371920 -24.595696   0.059957   4.358303  -6.213546  -3.142079  -0.000001  -0.000006  -0.000001   7.429453  -0.380481   1.527367  29.786351  -0.704282   6.203061  -5.429830  -7.640891  -9.773544  -0.766696  -8.134653 -14.536600  -7.924125 -28.119265  -8.081882 -36.474006 -32.725881   0.191445  10.549293 -17.676234  12.887700   0.523663  13.561494  10.803300   8.763308  29.498863  -7.827240 -12.669004  13.667038  -0.216388   1.889315   9.090580 -19.546487
 -2.240327   0.811555   3.273961 167.422906   8.140287 -172.611537 -32.081996   6.041842 -49.875084  57.943263  34.044089 -26.894167  -1.413806  -6.642278   1.205576   0.000005  -0.000005  -0.000004 -56.833348  -5.466251  42.467579  25.196312 -25.148324   0.311408   3.772405  -5.488726  -3.131845  -0.000001  -0.000006  -0.000001   7.486025  -0.358360   1.572120  30.009721  -0.580961   6.362886  -5.731813  -7.654764  -9.796020  -0.774408  -8.324178 -14.553411  -7.817207 -28.080299  -8.126138 -35.690957 -32.226096   0.722761  10.045220 -17.279774  12.760909   0.541613  13.960783  10.708695   8.504389  29.816885  -8.506110 -12.513707  13.510502  -0.260094   1.930316   9.103675 -19.559792
 -2.237778   0.811286   3.266454 167.025437   8.095167 -172.541894 -33.959517   6.617493 -48.974455  61.430104  34.430636 -29.263895  -0.495631  -5.879885   0.238155   0.000005  -0.000005  -0.000004 -57.204051  -5.730404  42.403530  26.073965 -25.721372   0.617942   3.178479  -4.740631  -3.110937  -0.000002  -0.000008  -0.000001   7.547183  -0.334148   1.606466  30.250742  -0.455254   6.480391  -6.052817  -7.677927  -9.829321  -0.781263  -8.480869 -14.571235  -7.765202 -28.078620  -8.151668 -34.856887 -31.683379   1.213805   9.477373 -16.757607  12.647118   0.559925  14.342177  10.613406   8.211208  30.110551  -9.184294 -12.414242  13.404778  -0.333900   1.926888   9.061181 -19.593941
 -2.235666   0.810631   3.258787 166.676310   8.115478 -172.396601 -35.775443   7.047094 -48.311708  64.393376  35.051926 -31.262966  -0.696786  -5.909123  -0.462278   0.000005  -0.000002  -0.000006 -57.577530  -5.884314  42.276221  27.054045 -26.336669   1.027289   2.567714  -3.945999  -3.075417  -0.000006  -0.000008  -0.000001   7.617534  -0.305814   1.620014  30.527594  -0.325704   6.513650  -6.411889  -7.719636  -9.884325  -0.786326  -8.571894 -14.591038  -7.823031 -28.151400  -8.139684 -33.912267 -31.060921   1.632725   8.781369 -15.985071  12.559567   0.578195  14.687809  10.517062   7.845208  30.353586  -9.860163 -12.426071  13.400892  -0.468679   1.834484   8.907604 -19.669909
 -2.233553   0.809976   3.251120 166.327115   8.134912 -172.251177 -37.597949   7.455589 -47.634947  67.402724  35.586786 -33.313162  -0.898295  -5.935912  -1.162846   0.000004   0.000000  -0.000007 -57.951456  -6.037394  42.147870  28.044299 -26.945550   1.450582   1.956981  -3.151788  -3.031446  -0.000009  -0.000008  -0.000001   7.687878  -0.277463   1.633528  30.804368  -0.195995   6.546281  -6.771037  -7.761003  -9.939598  -0.791421  -8.662917 -14.610854  -7.880881 -28.224191  -8.127775 -32.979063 -30.432684   2.036976   8.089205 -15.211575  12.482077   0.597097  15.033411  10.420451   7.481644  30.600333 -10.535916 -12.437909  13.397033  -0.603455   1.741912   8.754149 -19.746096
 -2.231441   0.809321   3.243453 165.977854   8.153468 -172.105630 -39.426896   7.842488 -46.944785  70.452414  36.032481 -35.407914  -1.100128  -5.960248  -1.863536   0.000004   0.000002  -0.000009 -58.325833  -6.189638  42.018480  29.045003 -27.547767   1.887990   1.346046  -2.358090  -2.979035  -0.000013  -0.000008  -0.000001   7.758215  -0.249096   1.647007  31.081067  -0.066129   6.578286  -7.130260  -7.802025  -9.995137  -0.796550  -8.753939 -14.630683  -7.938754 -28.296993  -8.115942 -32.056932 -29.798906   2.426810   7.400591 -14.437235  12.414517   0.616634  15.378981  10.323562   7.120555  30.850758 -11.211577 -12.449756  13.393201  -0.738231   1.649172   8.600816 -19.822502
 -2.229827   0.808614   3.235569 165.623255   8.176508 -171.761528 -41.313408   7.969227 -46.732427  72.217798  36.753908 -36.708014  -1.524869  -5.982116  -1.615330   0.000004   0.000001  -0.000009 -58.740127  -6.211410  41.774579  30.113937 -28.125534   2.283198   0.787133  -1.603847  -2.906101  -0.000008  -0.000007  -0.000001   7.820228  -0.243364   1.623202  31.328001  -0.050883   6.480758  -7.519714  -7.860544 -10.167224  -0.806015  -8.758221 -14.712235  -7.872414 -28.543369  -7.984339 -31.132851 -29.144455   2.865978   6.422831 -13.459168  12.313761   0.622290  15.660952  10.333217   6.583156  30.990300 -11.915766 -12.567824  13.496607  -0.839603   1.619036   8.614029 -19.875786
 -2.228213   0.807908   3.227684 165.268503   8.197440 -171.417270 -43.200954   8.088971 -46.515906  74.019836  37.442413 -38.047630  -1.949528  -6.005813  -1.367284   0.000005   0.000001  -0.000009 -59.154527  -6.231427  41.530516  31.193202 -28.696648   2.692773   0.227418  -0.850350  -2.825832  -0.000004  -0.000006  -0.000000   7.882243  -0.237657   1.599391  31.574961  -0.036057   6.383166  -7.909398  -7.917903 -10.339734  -0.815487  -8.762489 -14.793790  -7.805273 -28.789609  -7.852100 -30.220318 -28.483959   3.290320   5.450674 -12.479579  12.230509   0.627904  15.942924  10.342857   6.046997  31.135495 -12.619449 -12.685753  13.600217  -0.940798   1.588911   8.627270 -19.929065
 -2.226599   0.807202   3.219800 164.913612   8.216261 -171.072871 -45.089491   8.201587 -46.295454  75.858259  38.096630 -39.426300  -2.374099  -6.031338  -1.119408   0.000006   0.000000  -0.000009 -59.569024  -6.249689  41.286304  32.283056 -29.260841   3.116858  -0.333291  -0.097674  -2.738216   0.000001  -0.000004  -0.000000   7.944261  -0.231977   1.575573  31.821946  -0.021652   6.285510  -8.299309  -7.974098 -10.512656  -0.824964  -8.766745 -14.875345  -7.737322 -29.035713  -7.719218 -29.318978 -27.817662   3.700094   4.483496 -11.498758  12.164531   0.633478  16.224897  10.352482   5.512125  31.286318 -13.322614 -12.803546  13.704029  -1.041818   1.558797   8.640538 -19.982339
